<svg width="256mm" height="256mm" version="1.1" viewBox="0 0 3200 3200" xmlns="http://www.w3.org/2000/svg" xmlns:cc="http://creativecommons.org/ns#" xmlns:dc="http://purl.org/dc/elements/1.1/" xmlns:rdf="http://www.w3.org/1999/02/22-rdf-syntax-ns#">
 <title>box-5</title>
 <g transform="translate(82.461 84.475)" fill="#699" stroke-opacity="0">
  <path d="m437.89 963.44 903.44 521.6a229.14 229.14 60 0 1 114.57 198.44v1043a76.379 76.379 150 0 1-114.57 66.146l-903.44-521.6a229.14 229.14 60 0 1-114.57-198.44v-1043a76.379 76.379 150 0 1 114.57-66.146z" fill-opacity=".90196" opacity=".9"/>
  <path d="m2597.2 963.46-903.44 521.6a229.14 229.14 120 0 0-114.57 198.44v1043a76.379 76.379 30 0 0 114.57 66.146l903.44-521.6a229.14 229.14 120 0 0 114.57-198.44v-1043a76.379 76.379 30 0 0-114.57-66.146z" fill-opacity=".90196" opacity=".9"/>
  <path d="m499.68 856.63 903.44 521.6a229.14 229.14 1.8155e-6 0 0 229.14 0l903.28-521.51a76.379 76.379 90 0 0 0-132.29l-903.44-521.6a229.14 229.14 2.0345e-6 0 0-229.14-1e-5l-903.28 521.51a76.379 76.379 90 0 0-1e-5 132.29z" fill-opacity=".90196" opacity=".9"/>
  <path d="m499.59 2306.6 903.44 521.6a229.14 229.14 1.4654e-6 0 0 229.14 0l903.28-521.51a76.379 76.379 90 0 0 0-132.29l-903.44-521.6a229.14 229.14 1.2463e-6 0 0-229.14 0l-903.28 521.51a76.379 76.379 90 0 0 0 132.29z" fill-opacity=".9" opacity=".9" style="mix-blend-mode:normal"/>
 </g>
 <metadata>
  <rdf:RDF>
   <cc:Work rdf:about="">
    <dc:date>13-Jun-2023</dc:date>
    <dc:creator>
     <cc:Agent>
      <dc:title>Yousuf Ahmed Antu</dc:title>
     </cc:Agent>
    </dc:creator>
    <dc:publisher>
     <cc:Agent>
      <dc:title>https://github.com/YousufAntu/icons/</dc:title>
     </cc:Agent>
    </dc:publisher>
    <dc:language>English</dc:language>
    <dc:contributor>
     <cc:Agent>
      <dc:title>Yousuf Ahmed Antu</dc:title>
     </cc:Agent>
    </dc:contributor>
    <dc:title>box-5</dc:title>
    <cc:license rdf:resource="https://www.apache.org/licenses/LICENSE-2.0"/>
   </cc:Work>
  </rdf:RDF>
 </metadata>
</svg>
