<svg width="256mm" height="256mm" version="1.1" viewBox="0 0 3e3 3e3" xmlns="http://www.w3.org/2000/svg" xmlns:cc="http://creativecommons.org/ns#" xmlns:dc="http://purl.org/dc/elements/1.1/" xmlns:rdf="http://www.w3.org/1999/02/22-rdf-syntax-ns#">
 <title>box-geometry</title>
 <g transform="translate(-17.519 -15.532)" fill="#699" stroke-opacity="0">
  <path d="m1517.5 172.13a229.14 229.14 0 0 0-114.57 30.698l-965.11 557.21a229.13 229.13 0 0 0-114.56 198.44l0.0284 1114.1a229.14 229.14 0 0 0 114.57 198.44l965.1 557.2a229.14 229.14 0 0 0 229.14 0l965.06-557.18a229.14 229.14 0 0 0 114.57-198.44v-1114.2a229.14 229.14 0 0 0-114.57-198.44l-965.09-557.19a229.14 229.14 0 0 0-114.57-30.698zm0 48.756a229.14 229.14 0 0 1 114.57 30.698l922.86 532.81a229.14 229.14 0 0 1 114.57 198.44v1065.4a229.14 229.14 0 0 1-114.57 198.44l-922.83 532.8a229.14 229.14 0 0 1-229.14 0l-922.87-532.82a229.14 229.14 0 0 1-114.57-198.44l-0.0274-1065.4a229.13 229.13 0 0 1 114.56-198.44l922.88-532.82a229.14 229.14 0 0 1 114.57-30.698z" fill-opacity=".9"/>
  <path d="m2597.2 892.32-965.06 557.18a229.14 229.14 120 0 0-114.57 198.44v1114.2a76.379 76.379 30 0 0 114.57 66.146l965.06-557.18a229.14 229.14 120 0 0 114.57-198.44v-1114.2a76.379 76.379 30 0 0-114.57-66.146z" fill-opacity=".90196"/>
 </g>
 <metadata>
  <rdf:RDF>
   <cc:Work rdf:about="">
    <dc:date>12-Jun-2023</dc:date>
    <dc:creator>
     <cc:Agent>
      <dc:title>Yousuf Ahmed Antu</dc:title>
     </cc:Agent>
    </dc:creator>
    <dc:publisher>
     <cc:Agent>
      <dc:title>https://github.com/YousufAntu/icons/</dc:title>
     </cc:Agent>
    </dc:publisher>
    <dc:language>English</dc:language>
    <dc:contributor>
     <cc:Agent>
      <dc:title>Yousuf Ahmed Antu</dc:title>
     </cc:Agent>
    </dc:contributor>
    <dc:title>box-geometry</dc:title>
    <cc:license rdf:resource="https://www.apache.org/licenses/LICENSE-2.0"/>
   </cc:Work>
  </rdf:RDF>
 </metadata>
</svg>
