<svg width="256mm" height="256mm" version="1.1" viewBox="0 0 3750 3750" xmlns="http://www.w3.org/2000/svg" xmlns:cc="http://creativecommons.org/ns#" xmlns:dc="http://purl.org/dc/elements/1.1/" xmlns:rdf="http://www.w3.org/1999/02/22-rdf-syntax-ns#" xmlns:xlink="http://www.w3.org/1999/xlink">
 <title>facebook-with-background-social-pack-1</title>
 <defs>
  <linearGradient id="c" x1="4549.1" x2="3358.1" y1="1894.5" y2="3454.6" gradientTransform="translate(.00045579 .00050279)" gradientUnits="userSpaceOnUse">
   <stop stop-color="#f1f2f3" offset="0"/>
   <stop stop-color="#eef4fc" offset="1"/>
  </linearGradient>
  <linearGradient id="b" x1="1752.7" x2="2082.7" y1="2170.5" y2="779.26" gradientUnits="userSpaceOnUse">
   <stop stop-color="#f3f3f3" offset="0"/>
   <stop stop-color="#bed9f9" offset="1"/>
  </linearGradient>
  <linearGradient id="a" x1="2040.8" x2="1782.6" y1="846.85" y2="2163.6" gradientTransform="translate(.00019201 -.00017499)" gradientUnits="userSpaceOnUse">
   <stop stop-color="#3771c8" offset="0"/>
   <stop stop-color="#3467b8" offset="1"/>
  </linearGradient>
  <filter id="d" x="-.13671" y="-.16584" width="1.2734" height="1.3317" color-interpolation-filters="sRGB">
   <feGaussianBlur stdDeviation="96.615761"/>
  </filter>
 </defs>
 <g transform="translate(370.32 392.36)">
  <path d="m1289.9 75.378c-223.37 5.7775-459.63 63.069-642.34 191.7-189.24 133.23-319.97 346.73-411.28 559.4-106.51 248.08-224.84 540.08-142.68 797.25 50.619 158.42 333.5 184.45 356.39 349.18 27.995 201.48-414.21 359.45-302.95 529.74 246.71 377.6 894.78-126.93 1345.5-143.41 312.79-11.435 634.96 107.52 938.48 31.071 154.33-38.871 335.41-100.87 412.78-239.95 107.7-193.61-9.4748-443.04-19.214-664.37-16.058-364.96 176.96-820.03-64.658-1094-161.47-183.11-481.28-83.133-719.99-134.36-251.57-53.989-492.87-188.87-750.09-182.21z" fill="#d7e3f4" stroke-width="9.0663"/>
  <g transform="matrix(.9742 .22568 -.90002 .43586 1.2787e-7 64.233)">
   <path d="m4618.3 3073.7 994-207.67c56.881-11.884 85.604 14.703 64.4 59.612l-482.87 1022.7c-21.204 44.909-84.066 90.63-140.95 102.51l-994 207.67c-56.881 11.884-85.604-14.703-64.4-59.612l482.87-1022.7c21.204-44.909 84.066-90.63 140.95-102.51z" fill-opacity=".3" filter="url(#d)" style="mix-blend-mode:normal"/>
   <g fill="#f9f9f9" stroke-width="6.4081">
    <path d="m3358.6 1801.7c-38.192 20.694-64.019 61.094-64.019 107.75l7e-4 1545.4c0 32.18 12.29 61.39 32.44 83.2l86.03 93.12c22.35 24.19 54.37 39.29 90.05 39.29l1185.9 2e-4c67.86 0 122.49-54.63 122.49-122.49l4e-4 -1545.4c0-32.18-12.281-61.39-32.441-83.2l-86.02-93.12c-22.35-24.19-54.38-39.29-90.06-39.29l-1185.8 4e-4c-21.206 0-41.122 5.3353-58.482 14.742zm86.022 93.112c17.359-9.4079 37.274-14.743 58.48-14.743l1185.9-6e-4c11.807 0 23.21 1.6647 33.998 4.7554 1.6102 7.9514 2.4627 16.184 2.4627 24.625l-4e-4 1545.4c0 67.87-54.63 122.5-122.49 122.5l-1185.9-3e-4c-11.811 0-23.217-1.6641-34.007-4.7554-1.6102-7.9511-2.4632-16.184-2.4632-24.625l1e-4 -1545.4c0-46.654 25.821-87.059 64.01-107.76z" fill="#afc6e9"/>
   </g>
   <path d="m3417.1 1787h1185.9c67.86 0 122.49 54.631 122.49 122.49v1545.4c0 67.86-54.631 122.49-122.49 122.49h-1185.9c-67.86 0-122.49-54.631-122.49-122.49v-1545.4c0-67.86 54.631-122.49 122.49-122.49z" fill="url(#c)" stroke-width="6.4081"/>
  </g>
  <g transform="translate(-16.058 -176.64)">
   <g fill="#e6e6e6" stroke-width="6.8256">
    <path d="m1750.1 1943.6c-164.5 0-322.26 21.78-438.58 60.56-116.33 38.77-181.67 91.36-181.67 146.19v40c0 54.84 65.34 107.43 181.67 146.2 116.32 38.77 274.08 60.56 438.58 60.56 342.56 0 620.26-92.57 620.26-206.76v-40c0-114.18-277.7-206.75-620.26-206.75zm0 40c322.32 0 587.2 81.954 617.38 186.75-30.181 104.8-295.07 186.76-617.38 186.76-164.5 0-322.26-21.79-438.58-60.56-102.1-34.028-164.92-78.702-178.76-126.2 13.841-47.49 76.657-92.164 178.76-126.19 116.32-38.78 274.08-60.56 438.58-60.56z" fill="#afc6e9"/>
   </g>
   <path d="m2370.3 2150.3a620.26 206.75 0 0 1-620.26 206.75 620.26 206.75 0 0 1-620.26-206.75 620.26 206.75 0 0 1 620.26-206.75 620.26 206.75 0 0 1 620.26 206.75z" fill="#e6e6e6" stroke-width="6.8256"/>
   <g stroke="#acf">
    <g fill="#3771c8">
     <path d="m1743.5 705.29-12.151 0.92604-25.319 1.9529c-40.07 4.03-79.55 11.112-118.47 21.694-120.91 32.865-230.8 97.944-318.61 185.76l-28.28 28.284c-56.88 56.884-104.5 123.3-139.85 196.69-31.5 65.39-54.889 140.56-64.339 212.66l-5.8301 60.04-0.9798 11.19v63.09l0.9798 13.23 5.8399 60.03c11.11 77.47 34.56 152.83 69.4 222.85 31.73 63.769 74.09 121.94 122.35 174l29.27 28.58c55.1 51.56 109.98 88.721 177.21 122.27 58.049 28.96 138.2 55.27 202.53 63.85l28.28-28.28v-505.72h-183.28v-182.35h155l28.28-28.29v-178.07l0.9198-12.21c1.51-21.69 4.71-43.06 10.37-64.1 6.8798-25.56 17.18-50.87 31.29-73.27 5.098-8.0796 11.187-16.5 17.789-24.492 12.012-10.089 23.479-18.409 37.922-26.278 37.71-20.54 80.86-31.04 123.54-32.92l13.171-0.97h25.31l21.27 1.0201 27.34 1.9399 63.79 6.4802 32.41 4.7998v150.81h-46.649c-29.15 0-56.571-0.04-83.04 14.56-6.13 3.3896-14.2 9.1197-19.24 13.97l-6e-4 5e-4c-0.3399 0.3299-0.6894 0.6699-1.0294 1.0098 0 1e-4 -4e-4 -1e-4 -5e-4 0l-14.142 14.147-14.138 14.142v5e-4c-19.02 19.01-29.31 48.58-29.35 75.26v142.46h199.49l-8.6899 56.98-15.89 104.81-3.1983 20.56h-143.43l-28.28 28.28v505.72l59.741-12.09c46.52-11.1 98.76-30.34 141.77-51.26 71.68-34.86 137.62-82.22 194.29-138.89l28.281-28.28c52.33-52.34 96.76-112.61 130.5-178.33 15.2-29.59 27.42-58.3 38.8-89.54 14.99-41.19 25.541-83.96 32.761-127.19 2.79-16.66 7.69-53.16 7.69-69.2v-98.7c-0.02-15.19-5.1902-53.19-7.8502-69.19-8.4798-51.12-22.04-101.43-41.21-149.58-86.39-217.01-273.16-381.39-499.78-435.39-40.07-9.555-81.36-16.677-122.53-18.478l-11.14-0.9772zm-28.28 28.284h70.88l11.14 0.97721c41.16 1.801 82.46 8.924 122.53 18.478 226.62 54.002 413.39 218.38 499.77 435.39 19.17 48.15 32.73 98.46 41.22 149.58 2.65 16.01 7.8302 54 7.8502 69.19v98.71c0 16.03-4.9105 52.53-7.6905 69.19-7.22 43.24-17.77 86-32.77 127.19-11.37 31.24-23.59 59.96-38.79 89.55-30.685 59.76-70.214 115.03-116.48 163.91-53.365 50.545-114.28 93.035-180.02 125.01-43.02 20.93-95.25 40.17-141.77 51.27l-59.75 12.09v-477.44h129.69l8.51-1.6299 28.29-28.28 3.0499-12.62 5.3697-34.6 15.89-104.8 8.6904-56.99h-199.49v-142.45c0.037-20.003 5.8254-41.631 16.736-59.219 1.598-1.0179 3.155-1.9516 4.6034-2.7513 26.47-14.6 53.891-14.56 83.031-14.56h74.94l28.28-28.28v-179.09l-32.4-4.8028-63.8-6.4823-27.34-1.9436-21.26-1.017h-25.319l-13.16 0.97669c-42.69 1.872-85.831 12.369-123.54 32.919-17.08 9.3-29.99 19.221-44.56 31.96-2.67 2.33-5.3301 4.8397-7.9701 7.4797l-28.242 28.232-0.048 0.048c-11.77 11.78-22.98 26.17-31.46 39.62-14.11 22.39-24.42 47.71-31.29 73.26-5.66 21.04-8.8599 42.41-10.37 64.11l-0.9203 12.21v149.78h-155l-28.29 28.29v210.63h183.29v472.74c-58.384-11.422-124.45-34.306-174.24-59.15-67.229-33.55-122.12-70.71-177.21-122.27l-29.28-28.59c-48.26-52.05-90.62-110.23-122.34-174-34.85-70.009-58.301-145.37-69.411-222.84l-5.8395-60.04-0.9699-13.22v-63.09l0.9699-11.19 5.8302-60.04c9.4498-72.1 32.84-147.27 64.34-212.67 32.286-67.02 74.813-128.23 125.28-181.68 85.43-81.078 190.19-141.3 304.89-172.48 38.93-10.583 78.4-17.665 118.48-21.694l25.32-1.9539z" fill="url(#b)"/>
    </g>
    <path d="m1637.2 2172.4c-64.321-8.5778-144.48-34.892-202.52-63.851-67.228-33.549-122.11-70.71-177.21-122.27l-29.275-28.583c-48.262-52.058-90.62-110.23-122.34-174-34.844-70.018-58.297-145.38-69.405-222.84 0 0-5.8426-60.035-5.8426-60.035l-0.9719-13.228v-63.088l0.9719-11.193s5.8329-60.035 5.8329-60.035c9.4474-72.104 32.839-147.27 64.342-212.67 89.91-186.67 259.23-328.29 458.45-382.45 38.925-10.582 78.397-17.665 118.48-21.694l25.315-1.9537s12.152-0.92599 12.152-0.92599h70.884l11.139 0.97687c41.163 1.801 82.458 8.9239 122.53 18.479 226.62 54.001 413.39 218.38 499.78 435.39 19.169 48.15 32.728 98.458 41.214 149.58 2.653 16.006 7.8276 54.001 7.8478 69.193v98.702c0 16.036-4.9011 52.536-7.6857 69.193-7.2202 43.236-17.772 86.003-32.768 127.19-11.372 31.239-23.594 59.954-38.793 89.544-70.275 136.87-186.92 250.15-324.79 317.21-43.016 20.921-95.247 40.163-141.77 51.264l-59.745 12.088v-505.72h157.97l8.5163-1.6282 3.0481-12.618 5.377-34.596 15.888-104.81 8.6884-56.983h-199.49v-104.81-37.65c0.042-27.158 10.704-57.308 30.379-76.275 5.0325-4.8538 13.103-10.582 19.24-13.971 26.47-14.602 53.891-14.561 83.035-14.561h74.934v-179.09s-32.404-4.8029-32.404-4.8029-63.795-6.4816-63.795-6.4816l-27.34-1.9436-21.265-1.0175h-25.316l-13.164 0.9768c-42.682 1.8722-85.829 12.373-123.54 32.918-17.072 9.3005-29.984 19.222-44.555 31.961-14.592 12.76-29.062 30.638-39.442 47.092-14.106 22.396-24.414 47.713-31.29 73.263-5.6608 21.043-8.8604 42.412-10.369 64.106l-0.9215 12.21v50.877 127.19h-183.28v210.63h183.28v505.72z" fill="url(#a)" stroke-width="1.068"/>
    <path d="m1636.7 2167.9c-68.628 1.428-161.95 5.8087-234.46 10.63-83.99 5.5851-157.43 11.772-238.27 20.355 0 0-43.544 4.7584-43.544 4.7584-74.248 8.6666-145.64 18.351-209.18 28.968-69.782 11.656-130.83 24.202-180.58 37.099l-35.788 9.9946-7.5699 2.2022-31.466 10.503-4.6103 1.8634s-24.108 9.9947-24.108 9.9947c-26.511 12.004-40.599 24.517-41.7 35.405-3.1526 31.077 95.608 54.654 267.91 63.669 33.664 1.7618 69.622 2.9408 107.71 3.6117 0 0 24.352 0.3252 24.352 0.3252s11.695 0.1541 11.695 0.1541h70.915l11.631-0.1626c42.08-0.2998 86.945-1.4856 131.8-3.0763 253.66-8.9901 522.49-36.355 717.16-72.483 43.193-8.016 81.849-16.391 115.84-24.902 10.637-2.6647 34.765-8.9901 42.362-11.519l49.229-16.432c7.9986-2.6698 21.3-8.7462 26.822-11.519 14.341-7.1979 25.116-14.318 30.656-21.175 4.2038-5.2005 6.2979-9.981 5.8502-14.907-2.0411-22.786-62.236-41.646-166.72-52.809-32.601-3.4829-75.258-6.6863-116.26-8.5345l-53.742-2.0124s-252.23 84.192-252.23 84.192h158.04l7.7081 0.271-3.2437 2.1006-11.876 5.7596-36.379 17.448-19.728 9.4864h-199.58l-52.274 17.448s-18.778 6.2678-18.778 6.2678c-13.504 4.5213-17.875 9.5407-7.6507 12.698 2.6139 0.8081 7.8309 1.7618 12.28 2.3259 19.199 2.4309 46.653 2.4241 75.81 2.4241h74.967l-89.322 29.815-34.814 0.7996-67.056 1.079-28.322 0.3236-21.782 0.1694h-25.327l-12.683-0.1626c-41.767-0.3117-79.696-2.0599-107.18-5.4801-12.442-1.5484-20.41-3.2-28.634-5.3209-8.2338-2.1243-13.794-5.1007-15.971-7.8399-2.9419-3.7285-0.6279-7.9433 5.237-12.197 4.8323-3.5032 12.289-7.0606 21.6-10.672l5.1681-2.0327s25.376-8.4701 25.376-8.4701l63.439-21.175h-183.37l105.06-35.066h183.37s252.23-84.192 252.23-84.192z" fill="#0b1728" opacity=".1" stroke-width=".43588"/>
   </g>
  </g>
  <g transform="skewY(12.888)" fill="#afc6e9" stroke-width="7.5768" aria-label="facebook">
   <path d="m216.38 2055.6c-9.0258 2.1398-16.351 5.8432-21.976 11.11-9.3879 8.8711-14.082 22.178-14.082 39.92v4.0049l-19.895-2e-4v31.523l19.895 3e-4v113.56l46.509-3e-4v-113.56l34.365 3e-4v-31.523l-35.915-1e-4v-1.1627c0-9.3878 1.5934-15.718 4.7801-18.991 3.2728-3.2728 9.474-4.9095 18.604-4.9095 3.7896 0 7.3208 0.3877 10.594 1.1628 3.359 0.7752 6.072 1.4642 8.139 2.0671l3.4882-2e-4v-32.815c-4.3064-0.7751-9.2587-1.3777-14.857-1.8084-5.5983-0.5167-11.843-0.7753-18.733-0.7753-7.7676 0-14.739 0.7321-20.915 2.1962zm75.996 57.642c-0.70919 0.1682-1.3707 0.3329-1.9844 0.4944v35.011l4.2633 1e-4c3.7896-1.4642 10.034-3.5316 18.733-6.2015 8.6988-2.7561 16.881-4.134 24.546-4.134 12.747 0 22.393 1.5504 28.939 4.651 6.5457 3.0145 9.8185 8.5263 9.8185 16.536v0.7757c-13.694 0.7751-26.915 1.9808-39.662 3.6172-12.747 1.6364-23.427 4.3924-32.039 8.2681-8.6988 3.8757-15.417 9.1725-20.154 15.89-4.737 6.7179-7.1055 15.374-7.1055 25.968 0 13.264 4.6509 24.159 13.953 32.685 9.3017 8.5266 20.843 12.79 34.623 12.79 5.8566 0 11.24-0.5165 16.149-1.5501 4.9093-0.9474 9.6463-2.4543 14.211-4.5214 3.2728-1.5503 6.761-3.6606 10.464-6.3306 3.7035-2.6699 6.8041-4.9522 9.3018-6.847v15.374h46.121v-98.702c0-17.398-5.8998-30.145-17.699-38.24-11.713-8.1821-30.791-12.273-57.232-12.273-11.11 0-22.221 0.9042-33.331 2.7129-9.6462 1.5072-16.952 2.8497-21.916 4.0272zm220.99-3.7966c-1.949 0.433-3.8841 0.916-5.8058 1.4489-10.249 2.8422-19.293 7.3208-27.13 13.436-8.0959 6.4595-14.426 14.599-18.991 24.417-4.4786 9.8185-6.7179 21.489-6.7179 35.011 0 12.833 2.1101 24.03 6.3304 33.59 4.2202 9.5601 10.163 17.484 17.828 23.771 7.7514 6.2873 16.838 10.938 27.259 13.953 10.508 3.0144 22.092 4.5217 34.752 4.5217 9.6462 0 18.431-1.0334 26.355-3.1005 8.0098-1.9809 15.675-4.6942 22.996-8.1392v-39.662l-6.5888 2e-4c-1.8948 1.8087-3.9619 3.6604-6.2012 5.5552s-4.8232 3.7036-7.7515 5.4261c-3.1006 1.8087-7.0194 3.4018-11.756 4.7799-4.6509 1.2918-9.9047 1.9378-15.761 1.9378-12.575 0-22.307-3.6173-29.197-10.852-6.804-7.2347-10.206-17.828-10.206-31.781 0-13.522 3.3159-24.202 9.9477-32.039 6.7179-7.9237 16.278-11.886 28.68-11.886 5.5983 0 10.508 0.6464 14.728 1.9383 4.2202 1.2058 8.096 2.7557 11.627 4.6506 3.7035 1.9809 6.8041 4.0051 9.3018 6.0721 2.5838 2.0671 4.7801 3.8757 6.5887 5.4258l6.5888-2e-4v-39.662c-7.2347-3.445-15.029-6.2442-23.384-8.3974s-17.484-3.2296-27.389-3.2296c-8.9572 0-17.659 0.9383-26.104 2.8146zm283.32-54.749v201.02l44.571-3e-4 1.9379-7.2347c5.5121 3.2728 11.326 5.7707 17.441 7.4933s13.221 2.5839 21.317 2.5839c18.862 0 34.58-7.192 47.155-21.575 12.661-14.383 18.991-32.986 18.991-55.81 0-23.254-4.9524-41.471-14.857-54.648-9.9046-13.264-24.03-19.895-42.375-19.895-9.7324 0-18.345 1.7655-25.838 5.2968-7.4069 3.5312-14.685 8.1395-21.833 13.824v-71.055zm-128.32 53.906c-14.339 3.167-26.34 9.357-36.006 18.57-14.642 13.953-21.962 32.901-21.962 56.844 0 24.202 7.7515 42.848 23.254 55.94 15.503 13.091 37.81 19.637 66.92 19.637 11.283 0 21.575-0.9474 30.877-2.8421 9.3017-1.8948 19.206-4.9524 29.714-9.1726v-37.336l-5.1676 1e-4c-5.3399 4.0479-12.618 7.8373-21.833 11.368s-18.733 5.297-28.551 5.297c-15.503 0-27.259-3.0147-35.269-9.0436-7.9237-6.0289-12.23-14.728-12.919-26.096l106.45-1e-4v-16.278c0-22.393-5.9428-39.532-17.828-51.418-11.886-11.972-29.627-17.958-53.226-17.958-8.793 0-16.945 0.8294-24.456 2.4881zm-325.84 83.456c3.5043-0.8398 8.0016-1.5824 13.492-2.2284 7.3208-0.9474 14.125-1.6797 20.412-2.1964v30.231c-3.6173 3.1006-7.8376 5.5983-12.661 7.4931-4.737 1.8948-9.431 2.8424-14.082 2.8424-5.8566 0-10.163-0.3879-12.919-1.163-2.7561-0.8613-5.1246-2.1531-7.1055-3.8756-2.067-1.7226-3.359-3.5312-3.8757-5.426-0.51677-1.8948-0.77514-4.3494-0.77514-7.3638 0-4.5648 1.2058-8.2255 3.6174-10.982 2.4977-2.8422 6.072-4.9954 10.723-6.4595 0.9474-0.3015 2.0054-0.592 3.1734-0.8719zm337.14-55.895c2.9108-0.654 6.0462-0.9811 9.4051-0.9811 9.6462 0 16.751 2.4548 21.316 7.3641 4.5647 4.9093 6.9763 12.23 7.2347 21.962l-60.332 1e-4c0.68902-10.249 3.9188-17.699 9.6893-22.35 3.6066-2.9068 7.8352-4.9051 12.687-5.9952zm180.3 6.7706c3.4397-0.7751 6.8068-1.1631 10.101-1.1631 11.283 0 19.12 3.4882 23.513 10.464 4.3925 6.9764 6.5887 16.924 6.5887 29.844 0 14.469-3.0145 25.321-9.0434 32.556-6.0289 7.2346-15.202 10.852-27.518 10.852-4.2202 0-7.8376-0.2151-10.852-0.6458-3.0144-0.4306-6.2012-1.2493-9.5601-2.4551v-72.863c4.2202-2.4977 8.6558-4.3925 13.307-5.6844 1.1627-0.3445 2.3173-0.6458 3.4639-0.9042zm166.76-34.393c-13.924 3.0892-25.492 9.1273-34.705 18.114-13.953 13.694-20.929 32.556-20.929 56.586 0 23.857 6.9333 42.676 20.8 56.456 13.953 13.694 33.504 20.542 58.653 20.542 25.149 0 44.657-6.8475 58.524-20.542 13.952-13.78 20.928-32.599 20.928-56.456s-6.9328-42.676-20.799-56.457c-13.78-13.78-33.331-20.671-58.653-20.671-8.5858 0-16.525 0.8089-23.819 2.4271zm318.24-53.845v201.02l46.509-4e-4v-47.801l12.661-15.374 40.695 63.175 54.131-3e-4 -55.94-82.553 52.193-62.528-53.614-2e-4 -50.126 64.078v-120.02zm-303.7 84.862c2.8261-0.6782 5.9186-1.0175 9.2775-1.0175 4.4786 0 8.6558 0.7321 12.532 2.1963 3.8758 1.4642 7.1917 3.9615 9.9477 7.4927 2.7561 3.4451 4.9093 8.0533 6.4596 13.824s2.3254 12.919 2.3254 21.445c0 9.2156-0.7751 16.45-2.3254 21.704-1.4642 5.1677-3.7036 9.6037-6.718 13.307-2.67 3.3589-5.9427 5.7702-9.8185 7.2344-3.7896 1.378-7.7946 2.0671-12.015 2.0671-4.9093 0-9.3018-0.7753-13.178-2.3255-3.7896-1.5503-7.0626-4.0046-9.8186-7.3636-2.8422-3.5312-4.9954-8.1821-6.4595-13.953-1.4642-5.8566-2.1963-12.747-2.1963-20.671 0-8.8711 0.8183-16.235 2.4547-22.092 1.7226-5.8567 4.0049-10.464 6.8471-13.823 3.1867-3.6174 6.5026-6.0288 9.9477-7.2346 0.8828-0.3014 1.7953-0.565 2.7373-0.7911zm167.1-31.017c-13.924 3.0892-25.492 9.1274-34.705 18.114-13.953 13.694-20.928 32.556-20.928 56.586 0 23.857 6.9328 42.676 20.799 56.456 13.953 13.694 33.504 20.542 58.653 20.542s44.657-6.847 58.524-20.541c13.953-13.78 20.929-32.599 20.929-56.457 0-23.857-6.9332-42.676-20.8-56.456-13.78-13.78-33.331-20.671-58.653-20.671-8.5858 0-16.525 0.8095-23.819 2.4276zm14.541 31.017c2.826-0.6783 5.9184-1.0175 9.2774-1.0175 4.4786 0 8.6558 0.7322 12.532 2.1963 3.8757 1.4642 7.1916 3.9621 9.9477 7.4933 2.7561 3.4451 4.9093 8.0527 6.4595 13.823 1.5504 5.7704 2.3255 12.919 2.3255 21.446 0 9.2157-0.7751 16.45-2.3255 21.704-1.4641 5.1676-3.7034 9.603-6.7179 13.306-2.6699 3.3589-5.9428 5.7708-9.8185 7.235-3.7896 1.378-7.7945 2.067-12.015 2.067-4.9092 0-9.3017-0.7752-13.178-2.3255-3.7896-1.5503-7.0624-4.0051-9.8185-7.3641-2.8422-3.5312-4.9954-8.182-6.4596-13.952-1.4641-5.8567-2.1962-12.747-2.1962-20.67 0-8.871 0.8182-16.235 2.4546-22.092 1.7226-5.8566 4.0049-10.464 6.8471-13.823 3.1867-3.6174 6.5027-6.0294 9.9478-7.2351 0.8828-0.3015 1.7953-0.5651 2.7373-0.7912z" fill="#939dac" stroke-width="7.5768" style="mix-blend-mode:normal"/>
  </g>
 </g>
 <metadata>
  <rdf:RDF>
   <cc:Work rdf:about="">
    <dc:title>facebook-with-background-social-pack-1</dc:title>
    <dc:date>11-Jun-2023</dc:date>
    <dc:creator>
     <cc:Agent>
      <dc:title>Yousuf Ahmed Antu</dc:title>
     </cc:Agent>
    </dc:creator>
    <dc:publisher>
     <cc:Agent>
      <dc:title>https://github.com/YousufAntu/icons/</dc:title>
     </cc:Agent>
    </dc:publisher>
    <dc:source>https://about.meta.com/brand/resources/facebookapp/logo</dc:source>
    <dc:language>English</dc:language>
    <dc:contributor>
     <cc:Agent>
      <dc:title>Yousuf Ahmed Antu</dc:title>
     </cc:Agent>
    </dc:contributor>
    <cc:license rdf:resource="https://www.apache.org/licenses/LICENSE-2.0"/>
   </cc:Work>
  </rdf:RDF>
 </metadata>
</svg>
