<svg width="256mm" height="256mm" version="1.1" viewBox="0 0 3750 3750" xmlns="http://www.w3.org/2000/svg" xmlns:cc="http://creativecommons.org/ns#" xmlns:dc="http://purl.org/dc/elements/1.1/" xmlns:rdf="http://www.w3.org/1999/02/22-rdf-syntax-ns#" xmlns:xlink="http://www.w3.org/1999/xlink">
 <title>whatsapp-social-pack-1</title>
 <defs>
  <filter id="d" x="-.13671" y="-.16585" width="1.2734" height="1.3317" color-interpolation-filters="sRGB">
   <feGaussianBlur stdDeviation="96.615761"/>
  </filter>
  <linearGradient id="c" x1="3256.1" x2="473.59" y1="2313.6" y2="2743.9" gradientUnits="userSpaceOnUse">
   <stop stop-color="#f4f6f5" offset="0"/>
   <stop stop-color="#f2fdf8" offset="1"/>
  </linearGradient>
  <linearGradient id="b" x1="1531.3" x2="3013.8" y1="1656.7" y2="1656.7" gradientUnits="userSpaceOnUse">
   <stop stop-color="#acd7c0" offset="0"/>
   <stop stop-color="#78be8d" offset="1"/>
  </linearGradient>
  <linearGradient id="a" x1="1548.7" x2="2695.4" y1="2386.2" y2="1106.6" gradientTransform="translate(0 -.125)" gradientUnits="userSpaceOnUse">
   <stop stop-color="#007b36" offset="0"/>
   <stop stop-color="#009e46" offset="1"/>
  </linearGradient>
  <filter id="e" x="-.0017059" y="-.012429" width="1.0034" height="1.0249" color-interpolation-filters="sRGB">
   <feGaussianBlur stdDeviation="1.2024189"/>
  </filter>
  <linearGradient id="f" x1="1548.7" x2="2695.4" y1="2386.1" y2="1106.5" gradientUnits="userSpaceOnUse">
   <stop stop-color="#007a35" offset="0"/>
   <stop stop-color="#009e47" offset="1"/>
  </linearGradient>
 </defs>
 <path transform="matrix(.9742 .22568 -.90002 .43585 370.32 456.59)" d="m4618.3 3073.7 994-207.67c56.881-11.884 85.604 14.703 64.4 59.612l-482.87 1022.7c-21.204 44.909-84.066 90.63-140.95 102.51l-994 207.67c-56.881 11.884-85.604-14.703-64.4-59.612l482.87-1022.7c21.204-44.909 84.066-90.63 140.95-102.51z" fill-opacity=".3" filter="url(#d)" style="mix-blend-mode:normal"/>
 <g>
  <path d="m2020.8 1999.8c-55.832 0.4005-117.35 12.181-159.34 32.515l-1390.9 673.56c-28.962 14.026-43.279 29.53-43.278 43.584l1e-3 60.002c0 15.587 17.606 29.395 52.365 37.447l1155.3 267.62c66.109 15.314 168.5 3.8324 229.57-25.745l1390.9-673.56c28.962-14.026 43.289-29.529 43.278-43.584l0.01-60c0-15.587-17.615-29.397-52.375-37.449l-1155.3-267.62c-20.659-4.7858-44.862-6.9548-70.241-6.7727zm5e-4 59.996c25.378-0.183 49.582 1.986 70.241 6.7717l1155.3 267.62c11.502 2.6646 21.113 5.9635 28.841 9.7452-5.5877 3.829-12.167 7.6097-19.764 11.289l-1390.9 673.56c-61.084 29.581-163.47 41.064-229.58 25.749l-1155.3-267.62c-11.507-2.6656-21.12-5.9648-28.85-9.7472 5.5875-3.8289 12.166-7.6099 19.763-11.289l1390.9-673.56c41.989-20.334 103.51-32.118 159.34-32.521z" fill="#a3dcc3" stroke-width="5.0771"/>
  <path d="m2091 2006.6 1155.3 267.62c66.109 15.314 70.162 51.455 9.0869 81.032l-1390.9 673.56c-61.075 29.577-163.47 41.059-229.58 25.745l-1155.3-267.62c-66.11-15.314-70.162-51.455-9.087-81.032l1390.9-673.56c61.075-29.577 163.47-41.06 229.58-25.745z" fill="url(#c)" stroke-width="5.0771"/>
  <path d="m2104.3 2159.3c-164.5 0-322.26 21.78-438.58 60.56-116.33 38.77-181.67 91.36-181.67 146.19v40c0 54.84 65.34 107.43 181.67 146.2 116.32 38.77 274.08 60.56 438.58 60.56 342.56 0 620.26-92.57 620.26-206.76v-40c0-114.18-277.7-206.75-620.26-206.75zm0 40c322.32 0 587.2 81.954 617.38 186.75-30.181 104.8-295.07 186.76-617.38 186.76-164.5 0-322.26-21.79-438.58-60.56-102.1-34.028-164.92-78.702-178.76-126.2 13.841-47.49 76.657-92.164 178.76-126.19 116.32-38.78 274.08-60.56 438.58-60.56z" fill="#a4dbc3" stroke-width="6.8256"/>
  <path d="m2724.6 2366a620.26 206.75 0 0 1-620.26 206.75 620.26 206.75 0 0 1-620.26-206.75 620.26 206.75 0 0 1 620.26-206.75 620.26 206.75 0 0 1 620.26 206.75z" fill="#e5e5e5" stroke-width="6.8256"/>
  <path d="m1531.8 2398.5c-3.8669 1.2129-8.5636 3.9128-11.204 5.2071l-19.54 9.6442-57.826 28.632s-19.236 9.4958-19.236 9.4958l-8.6006 4.158c-2.1421 0.6087-6.8928 1.2319-10.618 1.7838 0 0-21.736 3.2933-21.736 3.2933-25.408 3.9434-49.942 7.8533-73.779 11.905-47.862 8.1375-95.051 17.254-132.95 25.64 0 0-36.913 8.5827-36.913 8.5827l-6.5638 1.5575-11.762 2.9445-30.649 8.3108-6.3999 1.9804c-14.781 4.0845-29.32 9.213-39.993 13.195-38.453 14.346-55.253 27.573-52.066 39.173 3.4205 12.477 32.928 22.778 83.847 30.008 57.571 8.177 140.58 12.307 245.69 12.304l44.498-0.3008 16.123-0.2056 16.071-0.1909 29.362-0.6085s17.206-0.4986 17.206-0.4986l32.403-0.9432c65.363-1.9927 138.93-5.692 210.43-10.246 87.776-5.5899 178.03-13.017 266.38-21.74 83.108-8.2067 169.23-18.22 245.09-28.473 118.79-16.056 224.57-34.037 304.84-52.087l38.126-9.0344 8.3184-2.0202 36.892-10.004 5.3038-1.6736s22.301-7.0005 22.301-7.0005c21.418-7.1999 37.992-14.204 49.62-20.928 17.651-10.218 22.502-19.678 16.094-28.051-10.426-13.634-51.278-23.575-119.54-30.337-44.882-4.4455-104.08-7.0081-170.62-7.6577-22.573-0.22-60.484-0.3228-85.535 0.1536l-14.113 0.1503-60.681 1.2575-10.354 0.3566-8.8084 0.1826-39.371 1.3618c-58.217 2.0578-125.5 5.5704-188.23 9.6165-28.577 1.8444-57.706 3.902-86.636 6.0894l-22.907 1.7995c-4.2848 0.3531-10.753 0.9106-14.441 0.9744-2.617 0.042-10.823-0.2052-13.44-0.2773l-18.29-0.4327-51.435-1.2495-45.713-1.0852-168.45-4.0809-30.21-0.6321zm75.14 23.744 15.673 0.4072 32.369 0.7818s39.742 0.9888 39.742 0.9888l45.714 1.0851 42.281 1.0357c3.4852 0.077 15.415 0.4524 18.71 0.3187 3.0599-0.1236 12.699-0.9754 16.52-1.2934l35.353-2.9684c28.039-2.3139 65.526-5.0764 93.269-6.9079 63.083-4.1614 123.24-7.2404 181.43-9.2452l17.677-0.6265 8.8084-0.1826 12.312-0.3972 45.022-0.933 12.178-0.1156c47.1-0.6706 90.142-0.2362 128.12 1.0433 49.111 1.6516 90.32 4.826 120.81 9.3992 29.486 4.4192 49.962 10.127 59.475 16.859 11.366 8.0555 8.5644 17.634-10.046 28.068-34.031 19.071-115.44 40.547-232.27 61.101-164.45 28.931-394.12 54.409-604.68 66.826-59.486 3.507-124.25 6.4682-177.39 7.6589l-15.249 0.4582-38.582 0.6575-9.2718 0.057-53.954 0.1689c-55.978-0.3509-101.26-2.0847-141.2-5.3408-69.257-5.6475-105.31-15.419-113.13-28.393-5.7971-9.6123 10.639-21.957 43.348-34.16 0 0 24.679-8.329 24.679-8.329l4.7879-1.5207 9.805-2.9039 22.703-6.1561 11.763-2.9445 6.5639-1.5575s29.123-6.7155 29.123-6.7155c39.902-8.8295 90.759-18.274 143.31-26.708 21.905-3.5157 46.073-7.1891 69.709-10.542 0 0 23.664-3.3332 23.664-3.3332 2.6477-0.3676 9.9944-1.3571 11.683-1.7218 1.8166-0.3929 5.761-2.5599 6.7536-3.0666l14.373-7.1205 30.626-15.133 17.406-8.6047zm-231.02 136.66s28.382-0.5883 28.382-0.5883l14.153-0.4063c7.4639-0.1689 12.073-0.1377 21.005-0.7936 18.166-1.3302 38.393-4.9718 52.093-7.2599l92.275-15.416c12.394-2.0862 35.555-5.6166 43.598-7.5842 5.8377-1.4301 5.9124-2.4095 6.5364-3.5469l0.5755-1.8597-7.7824-4.8137c-2.7601-1.242-10.04-2.5792-0.8746-4.6724 6.1538-1.404 32.884-5.0467 42.992-6.4346 32.094-4.4034 65.139-8.5821 99.334-12.577l23.8-2.7547c63.017-6.8423 124.94-12.651 189.36-17.278l20.867-1.4915c13.556-0.9945 31.015-2.5373 39.218-1.8105 4.7954 0.425 7.8894 2.2358 9.5133 3.1191l10.476 6.3214c1.8146 1.486 0.2862 3.6357 14.973 3.3838 15.734-0.2713 40.544-2.344 58.659-3.6505l56.302-4.237 71.685-5.4669c10.655-0.8208 33.327-2.375 42.277-3.6182 5.4855-0.7617 13.42-2.6192 16.33-3.4597 11.714-3.3871 26.802-9.2163 26.977-11.93 0.1475-2.3882-7.6372-4.1941-16.581-5.5849-11.036-1.7188-32-3.5587-51.656-3.8862-18.318-0.3026-42.38 0.214-64.043 0.699l-9.2803 0.3103c-23.89 0.8235-36.406 1.5136-61.705 3.0057-30.103 1.7754-60.483 3.7382-91.038 5.8127l-65.301 4.7163c-124.33 9.7477-254.89 23.968-369.65 38.611 0 0-61.792 8.1032-61.792 8.1032-29.036 3.8882-54.383 7.3173-81.277 11.492-36.294 5.6332-70.547 11.62-95.064 17.606l-7.6987 1.8652c-27.524 7.44-41.881 13.891-35.566 19.358 1.4208 1.2298 3.7584 2.3411 6.6861 3.4149l2.5347 1.0604c5.1377 1.5308 14.557 2.1289 28.711 2.2422z" fill="#0b2818" filter="url(#e)" opacity=".1" stroke="#000" stroke-width=".37298"/>
  <path d="m2282.3 915.52-16.32 0.95472-16.32 0.86623-46.08 4.1729c-111.62 14.611-215.95 53.915-309.12 116.86-38.27 25.852-74.23 55.511-107.03 88.31l-42.42 42.426c-37.82 37.819-71.44 79.813-99.56 124.96-48.82 78.37-82.78 164.89-98.13 255.91-4.26 25.27-8.91 57.7-9.21 83.08l-0.9599 12.41v51.57l0.9599 18.14 0.8701 9.5498 5.5901 52.52c7.4 51.06 21.81 105.74 40.77 153.74 9.45 23.9 20.19 46.75 31.73 69.71l10.19 19.1c1.79 3.18 4.3998 6.71 4.2898 10.5l-7.1598 26.74-16.76 61.11-50.72 184.3-17.02 62.07c-2.27 8.3199-7.8601 25.81-8.5001 33.42l34.56-8.4503 59.52-15.54 135.36-35.33 52.8-13.65 59.52-15.56 21.12-5.45c3.06-0.8499 12.74-3.6404 15.36-3.7303 3.67-0.09 8.35 2.7601 11.52 4.5301l17.28 8.9c22.16 10.67 45.04 20.44 68.16 28.85 50.77 18.45 108.47 32.68 162.24 38.4l36.48 3.66h8.6396l9.6002 0.9599h59.52l14.4-0.9599c24.74-0.28 65.41-6.2502 90.24-10.87 73.21-13.63 146.12-39.09 211.2-75.2 61.4-34.08 116.38-74.9 164.68-123.19l42.42-42.43c29.57-29.56 56.62-61.93 81.11-97.26 39.6-57.14 71.5-120.02 92.77-186.21 13.99-43.55 23.82-88.3 29.27-133.68l3.7298-43.93 0.9302-10.5v-62.07l-0.9302-12.42-5.0998-55.38c-14.57-110.08-56.48-216.15-119.75-307.48-40.42-58.317-92.66-113.6-148.78-157.16-59.67-46.303-126.43-83.631-197.76-108.96-58.11-20.636-121.75-35.246-183.36-39.534l-30.72-1.8242-16.32-0.95472zm-42.43 42.427h28.8l16.32 0.95343 30.72 1.8255c61.61 4.287 125.25 18.897 183.36 39.533 71.33 25.333 138.1 62.661 197.76 108.96 56.12 43.563 108.36 98.842 148.78 157.16 63.27 91.327 105.19 197.39 119.75 307.48l5.1102 55.38 0.9198 12.42v62.06l-0.9198 10.51-3.7401 43.92c-5.45 45.39-15.28 90.14-29.27 133.69-21.27 66.19-53.17 129.07-92.77 186.21-18.626 26.881-38.749 52.043-60.326 75.563-42.888 39.371-90.622 73.375-143.02 102.46-65.08 36.12-137.99 61.57-211.2 75.2-24.84 4.6199-65.5 10.59-90.24 10.88l-14.4 0.9502h-59.52l-9.6002-0.9502h-8.6397l-36.48-3.6696c-53.77-5.72-111.48-19.95-162.24-38.4-23.13-8.41-46-18.18-68.16-28.85l-17.28-8.9005c-3.17-1.77-7.8499-4.6196-11.52-4.5296-2.62 0.09-12.3 2.8798-15.36 3.7298l-21.12 5.4603-59.52 15.55-52.8 13.66-135.36 35.33-59.52 15.53-34.56 8.4594v-0.01c0.64-7.61 6.2298-25.09 8.4898-33.42l17.02-62.07 50.73-184.3 16.76-61.11 7.1501-26.741c0.11-3.79-2.4898-7.31-4.2898-10.5l-10.18-19.1c-11.54-22.95-22.29-45.81-31.73-69.71-18.96-48-33.37-102.68-40.77-153.74l-5.5901-52.52-0.8701-9.5498-0.9599-18.14v-51.56l0.9599-12.42c0.3-25.38 4.94-57.81 9.21-83.07 15.35-91.03 49.31-177.55 98.13-255.92 22.828-36.664 49.292-71.248 78.686-103.21 26.788-24.675 55.41-47.335 85.464-67.637 93.17-62.947 197.5-102.25 309.12-116.86l46.08-4.1729 16.32-0.86751zm64.51 78.844-38.41 0.9547-9.5898 0.8662-56.65 6.3776c-60.82 10.151-115.7 28.104-170.87 55.538-57.46 28.575-108.02 65.472-152.05 109.5l-42.43 42.427c-29.29 29.291-55.69 61.739-79.31 96.995-43.8 65.381-74.7 146.02-87.75 223.45l-6.4195 52.52-0.8701 9.5498-0.9599 18.14v38.19l0.9599 18.15 0.8701 9.5498 4.6295 41.06c7.8 53.76 24.82 110.13 47.6 159.47 9.49 20.57 20.77 41.88 32.74 61.11l12.08 19.1c1.37 2.1 5.2999 7.7298 5.6599 9.9399 0.39 2.39-3.8998 16.4-4.8298 19.66l-12.63 45.84-26.74 97.4-15.22 55.38v0.01l18.24-4.9202 37.44-9.7598 46.08-12.18 52.8-13.65 48.96-12.85c3.9999-1 18.14-5.18 21.12-4.74 2.76 0.4 9.6699 4.7798 12.48 6.3898l25.92 15.02c20.72 11.64 49.71 24.98 72 33.42 50.7 19.17 102.53 31.48 156.48 36.85l16.32 1.7499h8.6403l11.52 0.9502h44.16l12.48-0.9102c47.39-2.0599 94.81-10.97 140.16-24.85 58.63-17.93 114.82-45 165.12-79.97 29.44-20.46 57.23-43.64 82.66-69.07l42.43-42.43c16.57-16.57 32.14-34.1 46.53-52.46 43.62-55.7 78.16-119.66 99.26-187.16 38.56-123.39 36.22-256.33-7.36-378.15-61.34-171.46-205.47-310.65-380.45-364.75-49.45-15.278-106.63-26.155-158.4-26.756zm-42.43 42.426 14.4 0.956c51.77 0.6 108.96 11.477 158.4 26.756 174.99 54.104 319.11 193.29 380.46 364.76 43.57 121.82 45.91 254.76 7.36 378.14-21.1 67.5-55.64 131.46-99.27 187.16-8.238 10.524-16.872 20.77-25.858 30.72-19.268 17.43-39.652 33.622-60.912 48.4-50.29 34.97-106.49 62.03-165.11 79.96-45.36 13.89-92.77 22.8-140.16 24.85l-12.48 0.9205h-44.17l-11.52-0.9605h-8.6403l-16.31-1.7499c-53.96-5.3599-105.79-17.67-156.48-36.85-22.3-8.44-51.29-21.78-72-33.42l-25.92-15.02c-2.82-1.5999-9.7205-5.9798-12.48-6.3897-2.98-0.4401-17.12 3.7497-21.12 4.7497l-48.96 12.84-52.8 13.66-46.08 12.17-37.44 9.7604-18.24 4.9196 15.21-55.39 26.75-97.4 12.62-45.83c0.93-3.27 5.2301-17.28 4.8401-19.67-0.36-2.21-4.2899-7.84-5.6599-9.94l-12.08-19.09c-11.97-19.24-23.25-40.55-32.75-61.12-22.78-49.34-39.8-105.71-47.59-159.47l-4.6302-41.06-0.8695-9.5504-0.9605-18.14v-38.2l0.9605-18.14 0.8695-9.5498 6.4104-52.52c13.06-77.42 43.95-158.07 87.76-223.45 17.91-26.732 37.422-51.846 58.577-75.198 38.736-35.022 82.119-64.883 130.35-88.874 55.17-27.435 110.05-45.388 170.88-55.538l56.64-6.3776 9.6002-0.8662zm-225.41 220.37v7e-4h-6e-4c-15.48 2.732-27.819 8.0606-39.279 19.062l-42.42 42.426-6.8503 7.4769c-7.31 7.62-14.15 15.412-20.47 23.869-28.12 37.61-38.14 78.95-38.05 125.1l0.8701 11.46c2.6 36.8 15.53 72.24 32.01 105.04 12.21 24.3 25.7 43.81 41.31 65.88l33.89 45.84c64.53 82.39 147.49 159.75 241.36 207.92l50.88 22.59c24.32 9.6899 48.9 18.64 73.92 26.38 21.02 6.5 31.61 9.39 53.76 11.6l8.6396 0.7901c21.11 0.24 44.64 0.3699 65.28-4.2201 22.16-4.93 51.63-20.21 70.08-33.29 8.05-5.71 16.22-12.18 23.48-19.44l42.43-42.43c6.21-6.21 11.76-13 16-20.39 10.44-18.21 17.25-55.27 18.08-76.39 0.2-5.24-0.9502-16.62-3.8002-20.97-4.63-7.11-22.62-14.389-30.73-18.419l-54.72-26.75-43.2-20.62c-14.12-6.26-32.35-16.73-48-16.36-6.67 0.16-11.71 3.2201-15.96 7.4601l-42.43 42.43c-5.05 5.05-8.9797 11.79-13.19 17.35l-20.891 25.577c-10.051 1.9694-20.474-4.4071-29.439-8.4969l-16.32-7.1204c-50.3-22.11-93.32-52.52-133.44-89.71l-14.49-15.19c-20.67-22.08-39.4-45.55-56.24-70.67-5.3-7.91-19.42-28.66-20.46-37.24-1.53-12.78 11.44-22.78 19.23-31.51l27.12-33.42 6.6798-12.42c3.79-7.55 7.5405-14.12 6.9505-22.91-0.84-12.1-11.61-32.59-16.6-44.88l-37.62-90.72c-5.59-13.465-12.81-35.112-26.89-41.52-6.93-3.155-11.94-2.3162-19.2-2.4062l-13.44-0.7577zm-42.428 42.426h27.838l13.44 0.7584c7.27 0.09 12.28-0.7495 19.2 2.4055 14.08 6.408 21.3 28.056 26.89 41.52l37.62 90.714c4.99 12.29 15.76 32.78 16.6 44.88 0.6 8.7999-3.1598 15.37-6.9498 22.92l-6.6702 12.41-27.12 33.43c-7.7999 8.72-20.77 18.72-19.23 31.51 1.03 8.57 15.16 29.32 20.46 37.24 16.83 25.11 35.56 48.59 56.23 70.66l14.49 15.2c40.13 37.19 83.14 67.59 133.44 89.71l16.32 7.11c10.5 4.8 23 12.73 34.56 6.7102 2.63-1.38 5.8202-4.1303 9.0402-7.3503l42.42-42.42c5.03-5.03 10.12-11.18 13.28-14.94l21.459-26.26c0.3819-0.03 0.7685-0.05 1.1615-0.06 15.65-0.37 33.88 10.11 48 16.36l43.2 20.63 54.72 26.74c8.1 4.03 26.09 11.32 30.73 18.42 2.84 4.36 3.9905 15.73 3.7905 20.97-0.8167 20.792-7.4166 56.994-17.584 75.497-18.531 12.677-46.428 26.875-67.637 31.603-20.64 4.58-44.17 4.4601-65.27 4.2201l-8.6403-0.7997c-22.15-2.2-32.74-5.1001-53.77-11.6-25.01-7.73-49.59-16.69-73.92-26.37l-50.87-22.6c-93.87-48.17-176.84-125.53-241.37-207.92l-33.89-45.83c-15.6-22.08-29.09-41.59-41.3-65.89-16.49-32.79-29.42-68.24-32.01-105.04l-0.8701-11.46c-0.09-46.15 9.9203-87.488 38.04-125.09l0.03-0.039c7.2897-3.9123 15.192-6.3643 24.14-7.9439z" fill="url(#b)"/>
  <path d="m1531.3 2397.8c0.644-7.6106 6.2308-25.095 8.4958-33.422l17.02-62.069 50.727-184.3 16.761-61.114 7.1524-26.738c0.1088-3.7904-2.4963-7.3148-4.2914-10.503l-10.186-19.098c-11.539-22.956-22.282-45.807-31.728-69.708-18.96-48.004-33.369-102.68-40.771-153.74l-5.5877-52.52s-0.8708-9.5497-0.8708-9.5497l-0.9597-18.143v-51.565l0.9597-12.413c0.2994-25.382 4.9446-57.811 9.2069-83.077 15.35-91.022 49.315-177.55 98.131-255.92 52.502-84.299 124.19-157.61 206.58-213.27 93.168-62.947 197.5-102.25 309.12-116.86l46.08-4.173 16.319-0.86618 16.32-0.95461h28.8l16.32 0.95461 30.719 1.8244c61.613 4.2876 125.25 18.897 183.36 39.533 71.328 25.333 138.1 62.661 197.76 108.96 56.121 43.563 108.36 98.842 148.78 157.16 63.274 91.327 105.19 197.4 119.75 307.48 0 0 5.1069 55.384 5.1069 55.384l0.9216 12.414v62.068l-0.9216 10.504s-3.7344 43.925-3.7344 43.925c-5.4525 45.387-15.284 90.134-29.271 133.69-21.273 66.184-53.174 129.06-92.774 186.21-64.474 93.046-146.79 165.51-245.78 220.45-65.079 36.114-137.99 61.572-211.2 75.199-24.835 4.6214-65.501 10.589-90.24 10.876l-14.4 0.9546h-59.52l-9.5996-0.9546h-8.64l-36.48-3.6669c-53.769-5.7195-111.47-19.948-162.24-38.397-23.126-8.4128-46.003-18.181-68.16-28.848l-17.28-8.9c-3.1675-1.7757-7.8526-4.6214-11.52-4.5358-2.6206 0.09-12.297 2.8847-15.36 3.7337l-21.12 5.4533-59.52 15.555-52.8 13.655-194.88 50.868-34.56 8.4516zm172.8-169.97 18.24-4.9173s37.44-9.7591 37.44-9.7591l46.08-12.175 52.8-13.655 48.96-12.844c4.003-1.0025 18.144-5.1854 21.12-4.746 2.7648 0.406 9.6669 4.7848 12.48 6.389l25.92 15.02c20.717 11.64 49.709 24.98 72 33.422 50.698 19.174 102.53 31.483 156.48 36.85l16.319 1.7477h8.64l11.52 0.9546h44.161l12.48-0.9167c47.395-2.0527 94.809-10.963 140.16-24.847 58.627-17.933 114.83-44.996 165.12-79.964 48.624-33.794 92.726-74.989 129.2-121.54 43.623-55.7 78.164-119.66 99.264-187.16 38.554-123.38 36.211-256.33-7.3628-378.14-61.344-171.46-205.47-310.65-380.46-364.76-49.441-15.278-106.63-26.155-158.4-26.756l-14.4-0.9555-38.4 0.9555-9.5997 0.8662s-56.64 6.3782-56.64 6.3782c-60.825 10.151-115.71 28.103-170.88 55.538-95.674 47.583-172.23 118.25-231.36 206.5-43.805 65.382-74.698 146.02-87.754 223.45l-6.4122 52.52s-0.8708 9.5488-0.8708 9.5488l-0.9606 18.144v38.196l0.9606 18.143s0.8708 9.5496 0.8708 9.5496l4.627 41.061c7.7955 53.761 24.816 110.13 47.597 159.47 9.4944 20.568 20.774 41.882 32.746 61.114l12.077 19.098c1.3725 2.1005 5.2992 7.7253 5.6639 9.9404 0.3901 2.3874-3.9077 16.395-4.8384 19.662l-12.624 45.836-26.745 97.4-15.216 55.384zm289.92-885.95h27.839l13.44 0.7579c7.2675 0.09 12.278-0.7489 19.2 2.4064 14.082 6.4079 21.302 28.055 26.89 41.52 0 0 37.622 90.716 37.622 90.716 4.9917 12.29 15.762 32.782 16.598 44.881 0.5986 8.7945-3.1585 15.365-6.9501 22.918l-6.6726 12.414-27.119 33.422c-7.7954 8.7277-20.765 18.726-19.229 31.512 1.0368 8.5752 15.158 29.325 20.458 37.241 16.838 25.114 35.568 48.586 56.236 70.663l14.487 15.192c40.128 37.194 83.145 67.598 133.44 89.713l16.32 7.1145c10.502 4.7937 23.001 12.728 34.56 6.7029 6.7578-3.5233 17.136-16.118 22.32-22.278l35.884-43.925c7.7475-10.236 14.544-24.465 29.156-24.818 15.648-0.3699 33.879 10.103 48 16.357l43.2 20.626 54.72 26.747c8.1021 4.0295 26.092 11.315 30.729 18.42 2.8419 4.3543 3.9939 15.728 3.7916 20.97-0.8254 21.123-7.6313 58.183-18.076 76.393-9.1969 16.024-24.538 29.239-39.484 39.829-18.452 13.082-47.923 28.361-70.08 33.298-20.64 4.5836-44.17 4.46-65.279 4.2209l-8.6399-0.794c-22.148-2.2061-32.737-5.0997-53.76-11.602-25.017-7.7352-49.594-16.692-73.92-26.374l-50.879-22.594c-93.869-48.174-176.83-125.53-241.36-207.92 0 0-33.888-45.836-33.888-45.836-15.609-22.078-29.098-41.586-41.309-65.888-16.483-32.791-29.414-68.238-32.006-105.04l-0.8708-11.459c-0.091-46.15 9.9262-87.488 38.045-125.09 6.326-8.4606 13.162-16.253 20.476-23.873 0 0 6.8449-7.4762 6.8449-7.4762 11.453-11.001 23.798-16.329 39.274-19.061z" fill="url(#a)" stroke="url(#f)" stroke-width=".95745"/>
  <path d="m809.31 2517.1v201.02l46.509 10.642v-102.84c5.0815-1.8516 9.7755-2.9743 14.082-3.367 4.3925-0.3729 8.6989-0.076 12.919 0.8894 5.9428 1.3597 10.551 3.146 13.824 5.3591 3.3589 2.2328 5.8997 5.1396 7.6223 8.7206 1.4641 3.091 2.4977 7.6338 3.1005 13.628 0.6029 5.9084 0.9044 11.791 0.9044 17.648v71.959l46.767 10.702v-94.439c0-18.173-4.4355-32.839-13.307-43.998-8.785-11.14-21.015-18.503-36.69-22.09-9.3017-2.1284-17.785-2.347-25.451-0.6559-7.5792 1.7109-15.503 4.8503-23.771 9.4179v-71.959zm-275.31-7.0549 44.571 155.28 49.996 11.44 29.068-91.146 29.585 104.57 49.351 11.292 44.958-134.79-47.801-10.938-24.417 94.407-29.456-106.73-41.212-9.4297-31.006 92.899-24.804-105.67zm643.24 105.71v41.47l-19.12-4.375v31.523l19.12 4.375v67.825c0 17.742 4.3926 31.279 13.178 40.61 8.8711 9.3507 22.35 16.095 40.437 20.234 8.096 1.8525 14.943 3.0314 20.541 3.5373 5.5983 0.5919 10.895 0.8134 15.89 0.6645v-31.91l-3.8757-0.8867c-1.5503 0.5065-4.3064 0.8235-8.2682 0.9504-3.8758 0.1467-7.0194-0.056-9.431-0.6074-5.8566-1.3402-10.335-3.2261-13.436-5.6581-3.0144-2.4984-5.1245-5.3934-6.3303-8.6838-1.2919-3.3101-1.9809-6.8692-2.0671-10.678-0.086-3.8093-0.1292-8.255-0.1292-13.336v-51.418l43.537 9.9623v-31.523l-43.537-9.9623v-41.47zm-167.98 4.0349c-3.9834-0.1578-7.2024-0.1944-9.657-0.1101v35.011l4.2633 0.9754c3.7896-0.597 10.034-1.2353 18.733-1.9147 8.6988-0.7658 16.881-0.2718 24.546 1.4822 12.747 2.9167 22.393 6.6747 28.939 11.273 6.5456 4.5121 9.8185 10.773 9.8185 18.783v0.7752c-13.694-2.3583-26.915-4.1776-39.662-5.4577-12.747-1.2802-23.427-0.9683-32.039 0.9367-8.6989 1.8854-15.417 5.6452-20.154 11.279-4.7369 5.6341-7.1055 13.748-7.1055 24.342 0 13.264 4.6509 25.222 13.953 35.877 9.3017 10.655 20.843 17.559 34.623 20.712 5.8566 1.3402 11.24 2.0553 16.149 2.1453 4.9092 0.1759 9.6462-0.2476 14.211-1.2701 3.2728-0.8015 6.761-2.1132 10.464-3.9358 3.7034-1.8225 6.804-3.3959 9.3017-4.7191v15.374l46.121 10.553v-98.702c0-17.398-5.8997-31.494-17.699-42.29-11.713-10.862-30.791-19.318-57.232-25.369-11.11-2.5422-22.221-4.1758-33.331-4.9137-5.5121-0.3999-10.26-0.6791-14.243-0.8369zm327.05 71.79c-12.058-0.579-22.232 1.0901-30.521 5.0069-13.178 6.2004-19.766 16.277-19.766 30.23 0 10.852 3.1868 20.667 9.5602 29.446 6.3734 8.6931 16.149 16.27 29.326 22.731 4.8231 2.3956 10.163 4.7366 16.02 7.0241 5.9428 2.2211 10.637 4.1136 14.082 5.677 7.2347 3.1196 12.144 5.7932 14.728 8.0208 2.5838 2.1416 3.8757 4.9778 3.8757 8.509 0 3.9619-2.1963 6.474-6.5888 7.5361-4.3924 0.9758-11.154 0.4193-20.283-1.6696-6.9763-1.5964-13.522-3.7836-19.637-6.5608-6.115-2.8634-11.584-5.8374-16.407-8.922-5.5982-3.5203-9.9477-6.5824-13.048-9.1867-3.0144-2.6706-5.6844-5.0904-8.0098-7.2589l-4.2633-0.9754v38.241c6.3734 4.3866 14.814 8.9877 25.321 13.804 10.508 4.8158 22.221 8.7021 35.14 11.658 23.34 5.3407 41.729 4.9833 55.165-1.0719 13.436-6.1413 20.154-16.705 20.154-31.691 0-10.249-2.9283-19.445-8.785-27.589-5.8566-8.2303-14.9-15.338-27.13-21.323-5.5121-2.6393-11.024-5.0207-16.536-7.1433-5.426-2.1889-10.508-4.2986-15.244-6.33-8.6127-3.7793-14.082-6.8395-16.407-9.1804-2.3254-2.3406-3.4881-5.2335-3.4881-8.6786 0-3.7896 2.5407-6.1364 7.6222-7.0408 5.1677-0.8846 11.498-0.4698 18.991 1.2447 9.0434 2.0693 17.958 5.6164 26.743 10.641 8.8711 4.9581 16.752 10.594 23.642 16.907l4.005 0.9166v-36.69c-5.5983-3.7787-13.393-7.8876-23.384-12.327-9.9047-4.5056-20.283-8.0004-31.135-10.483-8.5912-1.9658-16.504-3.122-23.739-3.4695zm127.19 32.147c-3.9834-0.1579-7.2024-0.1952-9.657-0.1108v35.011l4.2633 0.9759c3.7896-0.597 10.034-1.2352 18.733-1.9148 8.6988-0.7655 16.881-0.2716 24.546 1.4824 12.747 2.9165 22.393 6.674 28.939 11.272 6.5456 4.5122 9.8185 10.773 9.8185 18.783v0.7752c-13.694-2.3584-26.915-4.1775-39.662-5.4577-12.747-1.2803-23.427-0.9676-32.039 0.9374-8.6988 1.8852-15.417 5.6444-20.154 11.279-4.737 5.6338-7.1055 13.748-7.1055 24.342 0 13.264 4.6509 25.223 13.953 35.878 9.3017 10.655 20.843 17.559 34.623 20.712 5.8566 1.3401 11.24 2.0553 16.149 2.1446 4.9092 0.1759 9.6462-0.247 14.211-1.2695 3.2728-0.8014 6.761-2.1139 10.464-3.9363 3.7034-1.8226 6.804-3.3952 9.3017-4.7185v15.374l46.121 10.553v-98.702c0-17.398-5.8998-31.494-17.699-42.29-11.713-10.862-30.791-19.318-57.232-25.369-11.11-2.5423-22.221-4.1759-33.331-4.9142-5.5121-0.4002-10.26-0.6786-14.243-0.8364zm-407.92-13.725c2.7776 0.1189 5.9966 0.3816 9.657 0.7885 7.3208 0.7277 14.125 1.5521 20.412 2.474v30.231c-3.6173 2.2728-7.8376 3.805-12.661 4.5962-4.737 0.8108-9.431 0.6845-14.082-0.3796-5.8567-1.3401-10.163-2.7134-12.919-4.1191-2.7561-1.492-5.1246-3.3257-7.1055-5.5015-2.0671-2.1955-3.359-4.2997-3.8758-6.3127-0.5167-2.0131-0.7751-4.5267-0.7751-7.5412 0-4.5647 1.2058-7.9493 3.6173-10.154 2.4977-2.2706 6.072-3.606 10.723-4.006 1.8948-0.1694 4.231-0.1946 7.0086-0.076zm573.19 50.539v198.31l46.508 10.642v-60.461c6.0289 4.5662 11.929 8.3711 17.699 11.414 5.7705 3.129 12.79 5.6395 21.058 7.5314 8.9572 2.0495 17.355 2.248 25.192 0.5963 7.8376-1.6518 14.857-5.1271 21.058-10.426 5.9428-5.0135 10.723-12.016 14.34-21.006 3.7035-8.9711 5.5553-19.442 5.5553-31.414 0-23.168-5.0385-42.536-15.115-58.106-9.9907-15.55-24.03-25.394-42.116-29.532-9.7324-2.2268-18.345-2.432-25.838-0.6154-7.4069 1.8364-14.685 4.7785-21.833 8.8272v-15.115zm185 42.331v198.31l46.509 10.642v-60.461c6.0289 4.5662 11.929 8.3705 17.699 11.413 5.7705 3.129 12.79 5.6396 21.058 7.5315 8.9571 2.0496 17.355 2.2486 25.192 0.5969s14.857-5.1271 21.058-10.426c5.9428-5.0135 10.723-12.016 14.34-21.007 3.7034-8.9711 5.5552-19.442 5.5552-31.414 0-23.168-5.0385-42.537-15.115-58.106-9.9908-15.55-24.03-25.394-42.116-29.532-9.7323-2.227-18.345-2.432-25.838-0.6153-7.4069 1.8364-14.685 4.7789-21.833 8.8277v-15.115zm-120.01 4.4828c2.8462 0.113 5.6418 0.4837 8.3871 1.1119 10.421 2.3845 18.044 7.315 22.867 14.792 4.8231 7.477 7.2347 18.278 7.2347 32.403 0 14.469-3.0145 24.632-9.0434 30.487-6.0289 5.769-15.202 7.2443-27.518 4.4262-3.4451-0.7884-6.9333-1.7589-10.464-2.9113-3.5312-1.1526-6.8471-2.6865-9.9477-4.6017v-72.993c4.2203-1.5321 8.6558-2.4118 13.307-2.6395 1.7441-0.1176 3.4702-0.1425 5.178-0.075zm-183.95 6.583c2.7776 0.1187 5.9966 0.3815 9.657 0.7885 7.3208 0.7277 14.125 1.5526 20.412 2.4745v30.231c-3.6174 2.2729-7.8376 3.805-12.661 4.5962-4.737 0.8109-9.431 0.6841-14.082-0.3801-5.8566-1.3402-10.163-2.7128-12.919-4.1186-2.756-1.4918-5.1245-3.3263-7.1055-5.5021-2.067-2.1956-3.3589-4.2997-3.8757-6.3128-0.5167-2.0129-0.7751-4.5267-0.7751-7.5412 0-4.5647 1.2058-7.9491 3.6173-10.153 2.4977-2.2707 6.0719-3.6061 10.723-4.006 1.8948-0.1693 4.231-0.1945 7.0086-0.076zm368.95 35.749c2.8462 0.1129 5.6418 0.4835 8.3871 1.1117 10.421 2.3845 18.044 7.3152 22.867 14.792s7.2347 18.278 7.2347 32.403c0 14.469-3.0145 24.631-9.0434 30.486-6.0289 5.7691-15.202 7.2451-27.518 4.4269-3.445-0.7883-6.9333-1.7589-10.464-2.9115-3.5312-1.1525-6.8471-2.6863-9.9477-4.6015v-72.993c4.2202-1.5321 8.6559-2.4116 13.307-2.6393 1.7441-0.1178 3.4702-0.1426 5.178-0.075z" fill="#526b5c" opacity=".64249" stroke-width="5.2155"/>
 </g>
 <metadata>
  <rdf:RDF>
   <cc:Work rdf:about="">
    <dc:creator>
     <cc:Agent>
      <dc:title>Yousuf Ahmed Antu</dc:title>
     </cc:Agent>
    </dc:creator>
    <dc:publisher>
     <cc:Agent>
      <dc:title>https://github.com/YousufAntu/icons/</dc:title>
     </cc:Agent>
    </dc:publisher>
    <dc:language>English</dc:language>
    <dc:title>whatsapp-social-pack-1</dc:title>
    <dc:date>12-Jun-2023</dc:date>
    <dc:source>https://about.meta.com/brand/resources/whatsapp/whatsapp-brand/</dc:source>
    <dc:contributor>
     <cc:Agent>
      <dc:title>Yousuf Ahmed Antu</dc:title>
     </cc:Agent>
    </dc:contributor>
   </cc:Work>
  </rdf:RDF>
 </metadata>
</svg>
